<svg id="Layer_1" data-name="Layer 1" xmlns="http://www.w3.org/2000/svg" viewBox="0 0 1125 191.23"><path d="M148.41,109.33h-17V25.26h-.43l-53.39,67-53-67h-.43v84.07h-17V6.52h21.3L77.69,68.65,127.18,6.52h21.23Zm148.39,0H278.16l-11.85-23H197.07l-11.85,23H166.58L221,6.52h21.44ZM258,71,231.85,21.18,205.34,71Zm173.51,38.34H411.73L383.91,70.14H332v39.19H315V6.52h81.09q16.19,0,25.41,8.73T430.7,38.9q0,13.07-7.52,21-7,7.4-19.17,9.38ZM393.5,54.8q19.74,0,19.74-15.9,0-17-21.3-17H332V54.8Zm141,55.24a85.67,85.67,0,0,1-18.75,2.13q-27,0-45.3-13.77Q449.6,82.64,449.59,57.64q0-24.7,21-40.61Q489.06,3.11,515.76,3.11t45,13.91q20.87,15.75,20.87,40.57,0,31.64-31.28,47.1l12.81,14.11-16,5.15ZM539,92.19Q563.91,82.1,563.9,57.52q0-18-15.48-29.41-13.2-9.66-32.66-9.66t-32.94,9.67q-15.48,11.25-15.48,29.45,0,17.35,13.27,28.17t35.12,10.81c1,0,3.08-.09,6.11-.26L510.79,83.91l16.3-4.86ZM724.22,76.1q0,16.05-15.62,26-15.92,10.36-42.46,10.36T623.4,102.09Q607.77,92,607.78,76.1V6.52h17V72q0,12.08,10.58,18.46t30.74,6.39q20.16,0,30.6-6.39T707.18,72V6.52h17V76.1Zm141.29,33.23H757.87V6.52H861.53V21.86H774.91V48.27h60.21V63.61H774.91V94H865.5v15.34Zm111-78.67Q953.69,19,930,19q-15.76,0-24.14,3.69t-8.38,10.22q0,6.82,8.95,9.94,6.39,2.28,20.87,3.13,21.3,1.41,28.12,2.27,19.3,2.55,28.54,9.51t9.23,19.74q0,16.33-14.48,25.28t-41.61,8.94q-39.33,0-61.2-17.32l9.37-12.35a97.89,97.89,0,0,0,52,14.76q18,0,28-5,9.51-4.81,9.51-13.2,0-9.8-12.49-13.07Q955.67,63.89,927,62q-25.43-1.7-35.64-6.81-11.93-6-11.93-20,0-14.48,13.56-22.86T931.25,4q33.22,0,55.66,15.2Zm129.79,0Q1083.46,19,1059.76,19q-15.77,0-24.14,3.69t-8.38,10.22q0,6.82,9,9.94,6.39,2.28,20.87,3.13,21.3,1.41,28.12,2.27,19.3,2.55,28.54,9.51T1123,77.52q0,16.33-14.48,25.28t-41.61,8.94q-39.33,0-61.2-17.32L1015,82.07a97.87,97.87,0,0,0,52,14.76q18,0,28-5,9.51-4.81,9.51-13.2,0-9.8-12.49-13.07-6.54-1.7-35.22-3.55-25.42-1.7-35.64-6.81-11.92-6-11.93-20,0-14.48,13.56-22.86T1061,4q33.23,0,55.66,15.2l-10.36,11.5ZM456.62,175.33H423.35V139.85h5.88V170h27.39v5.29Zm47.73-17.79a16.86,16.86,0,0,1-7.15,14.11q-6.29,4.71-15.59,4.71t-15.68-4.76a16.8,16.8,0,0,1-7.15-14.06q0-8.52,7.25-14a25.15,25.15,0,0,1,15.58-4.8q9.27,0,15.54,4.8,7.2,5.49,7.2,14Zm-6.12,0a12,12,0,0,0-5.3-10.09,18.65,18.65,0,0,0-11.32-3.33q-7.39,0-12.05,3.79a12.48,12.48,0,0,0-.1,19.36Q474,171,481.61,171t12.08-3.73a12,12,0,0,0,4.54-9.7Zm56.39,17.79h-7.31l-27.08-29.09v29.09h-5.88V139.85h7.3L548.74,169V139.85h5.89v35.48Zm34.3-35.48q9.27,0,14.68,4.93T609,158a16.16,16.16,0,0,1-5.73,12.65,19.32,19.32,0,0,1-13.23,4.7H566.48V139.85ZM590.54,170a11.75,11.75,0,0,0,8.7-3.42,11.92,11.92,0,0,0,3.4-8.78,12.12,12.12,0,0,0-3.65-9.2,13.26,13.26,0,0,0-9.58-3.5h-17V170Zm71.83-12.5a16.83,16.83,0,0,1-7.15,14.11q-6.27,4.71-15.58,4.71T624,171.6a16.81,16.81,0,0,1-7.16-14.06q0-8.52,7.26-14a25.13,25.13,0,0,1,15.58-4.8q9.25,0,15.53,4.8,7.2,5.49,7.2,14Zm-6.12,0A11.94,11.94,0,0,0,651,147.45a18.67,18.67,0,0,0-11.32-3.33q-7.39,0-12.06,3.79a12.48,12.48,0,0,0-.09,19.36q4.56,3.71,12.15,3.7t12.08-3.73a12,12,0,0,0,4.53-9.7Zm56.4,17.79h-7.32l-27.08-29.09v29.09h-5.88V139.85h7.3L706.77,169V139.85h5.88v35.48Z"/></svg>